<?xml version="1.0" encoding="UTF-8" standalone="no"?>
<!-- Generator: Adobe Illustrator 13.0.2, SVG Export Plug-In . SVG Version: 6.00 Build 14948)  -->
<svg xmlns:dc="http://purl.org/dc/elements/1.1/" xmlns:cc="http://creativecommons.org/ns#" xmlns:rdf="http://www.w3.org/1999/02/22-rdf-syntax-ns#" xmlns:svg="http://www.w3.org/2000/svg" xmlns="http://www.w3.org/2000/svg" xmlns:sodipodi="http://sodipodi.sourceforge.net/DTD/sodipodi-0.dtd" xmlns:inkscape="http://www.inkscape.org/namespaces/inkscape" version="1.1" id="Layer_1" x="0px" y="0px" viewBox="0.995 1.495 198.51613 62.722222" enable-background="new 0.995 1.495 88 31" xml:space="preserve" inkscape:version="0.48.3.1 r9886" sodipodi:docname="public-domain-logo.svg"><metadata id="metadata47"><rdf:RDF><cc:Work rdf:about=""><dc:format>image/svg+xml</dc:format><dc:type rdf:resource="http://purl.org/dc/dcmitype/StillImage"/><dc:title/></cc:Work></rdf:RDF></metadata><defs id="defs45"/><sodipodi:namedview pagecolor="#ffffff" bordercolor="#666666" borderopacity="1" objecttolerance="10" gridtolerance="10" guidetolerance="10" inkscape:pageopacity="0" inkscape:pageshadow="2" inkscape:window-width="1920" inkscape:window-height="1124" id="namedview43" showgrid="false" showborder="true" inkscape:zoom="2" inkscape:cx="-54.475169" inkscape:cy="-97.337336" inkscape:window-x="0" inkscape:window-y="24" inkscape:window-maximized="1" inkscape:current-layer="Layer_1" fit-margin-top="0" fit-margin-left="0" fit-margin-right="0" fit-margin-bottom="0"/>

<rect style="fill:#ffffff;fill-opacity:1;fill-rule:evenodd;stroke:none" id="rect3914-6" width="198.51613" height="62.722221" x="0.99499977" y="1.495" ry="3.9338639" rx="5.059536"/><path inkscape:connector-curvature="0" id="path11-9-3-7" d="m 55.77584,7.6892259 c 7.54808,5.8641031 12.46604,15.2575221 12.4682,25.8816801 -0.002,9.664911 -4.07301,18.314005 -10.4902,24.214306 H 193.92498 V 7.6892259 H 55.77584 z" style="fill:#1a1a1a;fill-opacity:1"/><g id="g3965" transform="translate(-413.44427,-9.1388291)"><path style="fill:#ffffff;fill-opacity:1;stroke:none" inkscape:connector-curvature="0" id="path17-8-7-0" d="m 507.00932,22.223388 c 0.99035,0 1.83921,0.149057 2.53144,0.437065 0.69728,0.29306 1.26319,0.677071 1.70278,1.152031 0.43707,0.477487 0.75539,1.023186 0.9575,1.634571 0.19959,0.608859 0.29812,1.245508 0.29812,1.902368 0,0.639176 -0.0985,1.270772 -0.29812,1.892263 -0.20211,0.616438 -0.52043,1.16719 -0.9575,1.64215 -0.43959,0.47496 -1.00297,0.861497 -1.70278,1.152032 -0.69223,0.290534 -1.54109,0.437064 -2.53144,0.437064 h -3.66831 v 5.727315 h -3.49146 V 22.223388 h 7.15977 z m -0.9575,7.518522 c 0.39917,0 0.78823,-0.03032 1.15456,-0.08842 0.37138,-0.05811 0.69728,-0.17432 0.98024,-0.346114 0.28043,-0.171794 0.5078,-0.414327 0.6796,-0.727599 0.17179,-0.313272 0.25516,-0.725073 0.25516,-1.23035 0,-0.507803 -0.0834,-0.917078 -0.25516,-1.232876 -0.16927,-0.310745 -0.39665,-0.555804 -0.6796,-0.722546 -0.28043,-0.17432 -0.60633,-0.288008 -0.98024,-0.348641 -0.36885,-0.06063 -0.75539,-0.09095 -1.15456,-0.09095 h -2.71081 v 4.790026 l 2.71081,-0.0025 0,0 z"/><path style="fill:#ffffff;fill-opacity:1;stroke:none" inkscape:connector-curvature="0" id="path19-2-5-5" d="m 527.25072,36.980003 c -1.20256,1.053503 -2.8624,1.578991 -4.98203,1.578991 -2.14996,0 -3.81232,-0.522962 -4.99214,-1.566359 -1.1773,-1.043397 -1.76594,-2.657757 -1.76594,-4.832975 v -9.936272 h 3.48893 v 9.938799 c 0,0.432012 0.0404,0.856444 0.11369,1.278351 0.0733,0.416853 0.2299,0.785706 0.46738,1.106556 0.23748,0.315799 0.56844,0.578543 0.99034,0.780653 0.42191,0.202111 0.99035,0.30064 1.70026,0.30064 1.24551,0 2.10448,-0.275376 2.57944,-0.83876 0.47496,-0.558331 0.71244,-1.434986 0.71244,-2.62744 v -9.938799 h 3.49147 v 9.938799 c -0.003,2.160059 -0.60381,3.76684 -1.80384,4.817816 z"/><path style="fill:#ffffff;fill-opacity:1;stroke:none" inkscape:connector-curvature="0" id="path21-0-4-6" d="m 540.68603,22.223388 c 0.76044,0 1.4451,0.06821 2.06406,0.204637 0.62149,0.133899 1.15961,0.353694 1.60678,0.65686 0.44464,0.305693 0.78823,0.712441 1.02824,1.220244 0.25011,0.507804 0.36885,1.136874 0.36885,1.882157 0,0.803391 -0.17937,1.475409 -0.54822,2.011003 -0.3638,0.535593 -0.89687,0.980237 -1.60931,1.318773 0.97771,0.282955 1.70783,0.780653 2.18532,1.488041 0.48254,0.709914 0.72255,1.563832 0.72255,2.56428 0,0.805917 -0.15664,1.5032 -0.46738,2.094374 -0.31075,0.586121 -0.73013,1.066134 -1.25814,1.440039 -0.52296,0.373905 -1.12424,0.649281 -1.80132,0.828654 -0.67959,0.176847 -1.36677,0.265271 -2.07668,0.265271 h -7.69032 V 22.223388 h 7.47557 z m -0.43706,6.467546 c 0.62149,0 1.12929,-0.149057 1.53099,-0.449697 0.39664,-0.298113 0.59875,-0.780653 0.59875,-1.455198 0,-0.371378 -0.0657,-0.679597 -0.20211,-0.914551 -0.1339,-0.240007 -0.30822,-0.424433 -0.53307,-0.560858 -0.22232,-0.133898 -0.47496,-0.227374 -0.76549,-0.275375 -0.29054,-0.05558 -0.58865,-0.08085 -0.89939,-0.08085 h -3.26915 v 3.736524 h 3.53947 z m 0.19706,6.783344 c 0.34106,0 0.66696,-0.03537 0.97771,-0.101056 0.3158,-0.06569 0.58359,-0.181899 0.8236,-0.336009 0.23748,-0.156636 0.42443,-0.371378 0.57349,-0.641702 0.14148,-0.262744 0.20969,-0.608858 0.20969,-1.025712 0,-0.821075 -0.23496,-1.407197 -0.68465,-1.758364 -0.46486,-0.348641 -1.07372,-0.525488 -1.8291,-0.525488 h -3.80221 v 4.388331 h 3.73147 z"/><path style="fill:#ffffff;fill-opacity:1;stroke:none" inkscape:connector-curvature="0" id="path23-9-1-0" d="m 553.50238,22.223388 v 13.023515 h 7.7358 v 2.953344 H 550.01092 V 22.223388 h 3.49146 z"/><path style="fill:#ffffff;fill-opacity:1;stroke:none" inkscape:connector-curvature="0" id="path25-4-8-8" d="m 567.6653,22.223388 v 15.976859 h -3.49146 V 22.223388 h 3.49146 z"/><path style="fill:#ffffff;fill-opacity:1;stroke:none" inkscape:connector-curvature="0" id="path27-9-0-7" d="m 582.07075,26.4854 c -0.20717,-0.333483 -0.46486,-0.626544 -0.7756,-0.881709 -0.3158,-0.255165 -0.66949,-0.452223 -1.06361,-0.5937 -0.38654,-0.144004 -0.79581,-0.214743 -1.23035,-0.214743 -0.78823,0 -1.45015,0.156636 -1.99837,0.462328 -0.54823,0.303167 -1.00045,0.714967 -1.33141,1.227824 -0.34611,0.515382 -0.58612,1.101503 -0.74781,1.755837 -0.15663,0.65686 -0.23495,1.336458 -0.23495,2.036267 0,0.674544 0.0783,1.326352 0.23495,1.960474 0.15664,0.634123 0.4017,1.205086 0.74781,1.710363 0.33854,0.507804 0.78571,0.912025 1.33141,1.220244 0.54822,0.303166 1.21014,0.457276 1.99837,0.457276 1.07119,0 1.90489,-0.325904 2.50112,-0.982764 0.59623,-0.65686 0.96761,-1.520884 1.10403,-2.597124 h 3.37778 c -0.0859,1.000449 -0.31833,1.902368 -0.68465,2.708285 -0.36885,0.80339 -0.85897,1.493094 -1.46531,2.059004 -0.60633,0.56591 -1.31624,0.997922 -2.13732,1.296035 -0.81349,0.30064 -1.71289,0.449697 -2.68807,0.449697 -1.21267,0 -2.30912,-0.212216 -3.28178,-0.636649 -0.9676,-0.429486 -1.7912,-1.008028 -2.45564,-1.758364 -0.66949,-0.745284 -1.18235,-1.619413 -1.53099,-2.627441 -0.36127,-1.008027 -0.53812,-2.094373 -0.53812,-3.259036 0,-1.192454 0.17685,-2.299011 0.53812,-3.31967 0.35622,-1.02066 0.86908,-1.912474 1.53099,-2.672916 0.66444,-0.762968 1.48804,-1.356669 2.45564,-1.791207 0.97266,-0.434538 2.06153,-0.651807 3.28178,-0.651807 0.87665,0 1.70531,0.128845 2.47586,0.378958 0.78065,0.257691 1.47288,0.626543 2.08932,1.109083 0.61391,0.482539 1.12171,1.086345 1.52341,1.801312 0.40422,0.714967 0.6518,1.536042 0.76044,2.460699 h -3.38283 c -0.0606,-0.401695 -0.19706,-0.770547 -0.40422,-1.106556 z"/><path style="fill:#ffffff;fill-opacity:1;stroke:none" inkscape:connector-curvature="0" id="path29-7-0-4" d="m 506.69605,44.602107 c 1.02319,0 1.97563,0.161689 2.85734,0.487592 0.88424,0.330957 1.64468,0.823602 2.28891,1.480462 0.64422,0.65686 1.1495,1.475409 1.5133,2.463226 0.3638,0.982763 0.5457,2.142374 0.5457,3.4662 0,1.16719 -0.14906,2.24343 -0.44465,3.218615 -0.29811,0.987816 -0.74528,1.839208 -1.34403,2.556701 -0.60128,0.714967 -1.34909,1.278351 -2.24848,1.687626 -0.89434,0.409274 -1.95037,0.616437 -3.16809,0.616437 h -6.8465 V 44.602107 h 6.8465 z m -0.24253,13.020989 c 0.50275,0 0.99287,-0.07832 1.46783,-0.245059 0.47496,-0.166742 0.89434,-0.439591 1.26824,-0.816023 0.36885,-0.381484 0.66697,-0.881708 0.88929,-1.490567 0.22232,-0.611385 0.33348,-1.356669 0.33348,-2.240904 0,-0.798337 -0.0783,-1.528463 -0.23495,-2.18027 -0.15664,-0.649281 -0.40928,-1.207612 -0.76802,-1.662361 -0.35622,-0.469908 -0.8236,-0.818549 -1.41225,-1.066135 -0.5836,-0.250112 -1.30614,-0.368852 -2.16764,-0.368852 h -2.48596 v 10.065118 h 3.10998 v 0.0051 z"/><path style="fill:#ffffff;fill-opacity:1;stroke:none" inkscape:connector-curvature="0" id="path31-9-8-2" d="m 517.26897,49.336553 c 0.35622,-1.023186 0.86908,-1.917526 1.53099,-2.677968 0.66949,-0.768021 1.48804,-1.356669 2.45817,-1.791207 0.97266,-0.434539 2.06153,-0.651808 3.27925,-0.651808 1.23035,0 2.3268,0.217269 3.29188,0.651808 0.9676,0.434538 1.7811,1.023186 2.44807,1.791207 0.66949,0.760442 1.17982,1.647203 1.52846,2.677968 0.36127,1.018133 0.53812,2.129742 0.53812,3.317143 0,1.164664 -0.17685,2.253536 -0.53812,3.253984 -0.35622,1.002975 -0.86655,1.884684 -1.52846,2.629967 -0.66697,0.74781 -1.48047,1.328879 -2.44807,1.753312 -0.96508,0.424432 -2.05648,0.639175 -3.29188,0.639175 -1.21519,0 -2.30659,-0.214743 -3.27925,-0.639175 -0.97013,-0.424433 -1.78868,-1.005502 -2.45817,-1.753312 -0.66444,-0.745283 -1.1773,-1.626992 -1.53099,-2.629967 -0.35622,-1.000448 -0.53307,-2.08932 -0.53307,-3.253984 0,-1.187401 0.17685,-2.29901 0.53307,-3.317143 z m 3.1883,5.277618 c 0.15663,0.636649 0.40422,1.210139 0.74528,1.717942 0.34106,0.502751 0.78823,0.909499 1.33141,1.212665 0.55075,0.305693 1.21519,0.464855 2.00089,0.464855 0.78824,0 1.4552,-0.156636 2.0009,-0.464855 0.55328,-0.303166 0.99792,-0.709914 1.33646,-1.212665 0.33853,-0.507803 0.58612,-1.081293 0.74528,-1.717942 0.15664,-0.631596 0.23243,-1.28593 0.23243,-1.952895 0,-0.697283 -0.0733,-1.381933 -0.23243,-2.038793 -0.15663,-0.659387 -0.40675,-1.237929 -0.74528,-1.755838 -0.34612,-0.512856 -0.78823,-0.92213 -1.33646,-1.227823 -0.5457,-0.303166 -1.21266,-0.459802 -2.0009,-0.459802 -0.7857,0 -1.45014,0.156636 -2.00089,0.459802 -0.5457,0.305693 -0.99287,0.714967 -1.33141,1.227823 -0.34106,0.517909 -0.58865,1.10403 -0.74528,1.755838 -0.15664,0.651807 -0.23496,1.331405 -0.23496,2.038793 0.003,0.666965 0.0808,1.321299 0.23496,1.952895 z"/><path style="fill:#ffffff;fill-opacity:1;stroke:none" inkscape:connector-curvature="0" id="path33-4-9-1" d="m 540.74414,44.602107 3.71379,10.989775 h 0.053 l 3.5142,-10.989775 h 4.91129 v 15.976859 h -3.26914 V 49.255708 h -0.048 l -3.89316,11.323258 h -2.68302 l -3.89058,-11.212097 h -0.048 v 11.212097 h -3.27167 V 44.602107 h 4.91129 z"/><path style="fill:#ffffff;fill-opacity:1;stroke:none" inkscape:connector-curvature="0" id="path35-8-7-3" d="m 565.18186,44.602107 5.93701,15.976859 h -3.62789 l -1.20003,-3.55715 h -5.93701 l -1.24803,3.55715 h -3.51673 l 6.00522,-15.976859 h 3.58746 z m 0.19959,9.802374 -2.00343,-5.86374 h -0.048 l -2.06153,5.86374 h 4.11296 l 0,0 z"/><path style="fill:#ffffff;fill-opacity:1;stroke:none" inkscape:connector-curvature="0" id="path37-6-1-3" d="m 577.26304,44.602107 v 15.976859 h -3.49147 V 44.602107 h 3.49147 z"/><path style="fill:#ffffff;fill-opacity:1;stroke:none" inkscape:connector-curvature="0" id="path39-3-0-1" d="m 584.98367,44.602107 6.62671,10.716926 h 0.0455 V 44.602107 h 3.27167 v 15.976859 h -3.49399 l -6.60144,-10.696714 h -0.0455 v 10.696714 h -3.27167 V 44.602107 h 3.46873 z"/></g><path style="font-size:medium;font-style:normal;font-variant:normal;font-weight:normal;font-stretch:normal;text-indent:0;text-align:start;text-decoration:none;line-height:normal;letter-spacing:normal;word-spacing:normal;text-transform:none;direction:ltr;block-progression:tb;writing-mode:lr-tb;text-anchor:start;baseline-shift:baseline;color:#000000;fill:#1a1a1a;fill-opacity:1;stroke:none;stroke-width:3.05704212000000020;marker:none;visibility:visible;display:inline;overflow:visible;enable-background:accumulate;font-family:Sans;-inkscape-font-specification:Sans" d="m 33.269478,4.4811709 c -11.59118,0 -21.63244,6.5527141 -26.4062501,16.0312501 a 1.5286739,1.5286739 0 0 0 -0.625,1.28125 c -1.50747,3.41965 -2.34375,7.172363 -2.34375,11.125 0,15.709256 13.1898901,28.4375 29.3750001,28.4375 16.18287,0 29.40625,-12.728244 29.40625,-28.4375 -0.002,-15.711313 -13.22354,-28.4375001 -29.40625,-28.4375001 z m 0,3.0625 c 14.58747,0 26.34187,11.3747231 26.34375,25.3750001 0,0.843025 -0.0417,1.677898 -0.125,2.5 l -49.375,-14.5625 C 14.552158,12.933229 23.230278,7.5436709 33.269478,7.5436709 z M 8.7694779,23.637421 58.988228,38.481171 c -2.62291,11.334799 -13.11789,19.8125 -25.71875,19.8125 -14.58983,0 -26.3125001,-11.377214 -26.3125001,-25.375 0,-3.274159 0.64331,-6.406183 1.8125,-9.28125 z" id="path3912-1-5" inkscape:connector-curvature="0"/><path d="m 40.3183,24.256395 c -0.43755,-0.704353 -0.98182,-1.323332 -1.63813,-1.862252 -0.66699,-0.538924 -1.41402,-0.955124 -2.24641,-1.253943 -0.8164,-0.304152 -1.68083,-0.453545 -2.59862,-0.453545 -1.66481,0 -3.06282,0.330813 -4.22073,0.976473 -1.15789,0.640315 -2.11302,1.510076 -2.81202,2.593267 -0.73103,1.088525 -1.23794,2.326451 -1.57945,3.708474 -0.33083,1.387335 -0.49623,2.822694 -0.49623,4.300755 0,1.424688 0.1654,2.801357 0.49623,4.140676 0.33084,1.339321 0.84842,2.545239 1.57945,3.612444 0.71501,1.072509 1.65947,1.926262 2.81202,2.577252 1.15791,0.640315 2.55592,0.965795 4.22073,0.965795 2.26244,0 4.02331,-0.688334 5.28258,-2.075684 1.25929,-1.387335 2.04365,-3.212231 2.33181,-5.485336 h 7.13413 c -0.18141,2.113032 -0.67231,4.017973 -1.44603,5.720129 -0.77906,1.696819 -1.81422,3.153539 -3.09483,4.348774 -1.28063,1.195258 -2.78002,2.107705 -4.51421,2.737348 -1.71816,0.634971 -3.61777,0.949785 -5.67743,0.949785 -2.56126,0 -4.87706,-0.448209 -6.9314,-1.344645 -2.04365,-0.907105 -3.78316,-2.129042 -5.18652,-3.713809 -1.41402,-1.574106 -2.49722,-3.420339 -3.23358,-5.549378 -0.76303,-2.129042 -1.13654,-4.423493 -1.13654,-6.883351 0,-2.51856 0.37351,-4.855707 1.13654,-7.011407 0.75237,-2.155729 1.83558,-4.039316 3.23358,-5.645424 1.40336,-1.61145 3.14287,-2.865392 5.18652,-3.78319 2.05434,-0.91777 4.35413,-1.376669 6.9314,-1.376669 1.85156,0 3.60175,0.272134 5.22921,0.800398 1.6488,0.544272 3.11084,1.323305 4.4128,2.342477 1.29665,1.019153 2.36918,2.294451 3.21759,3.804512 0.85374,1.510075 1.37667,3.244248 1.60611,5.197215 h -7.14482 c -0.128,-0.848408 -0.4162,-1.627469 -0.85375,-2.337141 z" id="path27-9-4-1-6" inkscape:connector-curvature="0" style="fill:#1a1a1a;fill-opacity:1"/></svg>
